{"title":"The Experiment DVDSCR AC3 XViD - IMAGiNE","uid":5778850,"size":1389752879,"categoryP":"video","categoryS":"movies","magnet":"?xt=urn:btih:dc7d82fee898ba057704ddd16a0b17eaf361ff7d&amp;dn=The+Experiment+DVDSCR+AC3+XViD+-+IMAGiNE&amp;tr=udp%3A%2F%2Ftracker.openbittorrent.com%3A80&amp;tr=udp%3A%2F%2Fopen.demonii.com%3A1337&amp;tr=udp%3A%2F%2Ftracker.coppersurfer.tk%3A6969&amp;tr=udp%3A%2F%2Fexodus.desync.com%3A6969","seeders":0,"leechers":0,"uploader":"TvTeam","files":5,"time":1282343174,"description":". \n  &lt;a href=&quot;\nhttp://www.torrentday.com/&quot; rel=&quot;nofollow&quot; target=&quot;_NEW&quot;&gt;\nhttp://www.torrentday.com/&lt;/a&gt;        :     The Hottest Private Tracker On The Net!!!\n\n\n               www . TorrentDay . Com \n(((((((((((((= Enjoy No RAR releases =))))))))))))))))))))\n\n\n...................................NFO:....................................\n\n.      *********** ****    ****      ***      ******** *********** ****    *** **********\n           *+*     +*+*+* *+*+*+   *+* *+*   *+*    *+*    *+*     *+*+*   *+* *+*        \n           +*+     +*+ +*+*+ +*+  +*+   +*+  +*+           +*+     *+*+*+  +*+ +*+        \n           +$+     +$+  +*+  +$+ +$++*++$++* *$*           +$+     +$+ +*+ +$+ +$++*++$  \n           +$+     +$+       +$+ +$+     +$+ +$+   +$+$    +$+     +$+  +$+$+$ +$+        \n           $+$     $+$       $+$ $+$     $+$ $+$    $+$    $+$     $+$   $+$+$ $+$        \n       $$$$$$$$$$$ $$$       $$$ $$$     $$$  $$$$$$$$ $$$$$$$$$$$ $$$    $$$$ $$$$$$$$$$     \n                                                \n\n\n\n                           Another Fine Release Brought to you from - IMAGiNE                   \n                                                 \n\n********************************************************************************************************************                                \n                         The Experiment DVDSCR AC3 XViD - IMAGiNE\n********************************************************************************************************************\n\nRipper ...........: IMAGiNE                                        IMDB Rating.......:7.1/10                             \nVideo Codec.......: XVID                                         Release Date......:20/08/10\nAudio Codec.......:AC3                                           Theatre Date......:12/08/10\nAudio Bitrate.....:192                                              Runtime.......:1h 36mn\nSubtitles.........:NIL                                                 Language..........:ENGLISH\nResolution...... 720 x 384                                      IMDb URL..........:http://www.imdb.com/title/tt0997152/\n\n\n[color=yellow]DETAILS:[/color]\n\nVideo\nID                               : 0\nFormat                           : MPEG-4 Visual\nFormat profile                   : Advanced Simple@L5\nFormat settings, BVOP            : Yes\nFormat settings, QPel            : No\nFormat settings, GMC             : No warppoints\nFormat settings, Matrix          : Default (MPEG)\nMuxing mode                      : Packed bitstream\nCodec ID                         : XVID\nCodec ID/Hint                    : XviD\nDuration                         : 1h 36mn\nBit rate                         : 1 702 Kbps\nWidth                            : 720 pixels\nHeight                           : 384 pixels\nDisplay aspect ratio             : 1.875\nFrame rate                       : 23.976 fps\nResolution                       : 24 bits\nColorimetry                      : 4:2:0\nScan type                        : Progressive\nBits/(Pixel*Frame)               : 0.257\nStream size                      : 1.14 GiB (89%)\nWriting library                  : XviD 1.2.1 (UTC 2008-12-04)\n\nAudio\nID                               : 1\nFormat                           : AC-3\nFormat/Info                      : Audio Coding 3\nCodec ID                         : 2000\nDuration                         : 1h 36mn\nBit rate mode                    : Constant\nBit rate                         : 192 Kbps\nChannel(s)                       : 2 channels\nChannel positions                : L R\nSampling rate                    : 48.0 KHz\nStream size                      : 132 MiB (10%)\nAlignment                        : Aligned on interleaves\nInterleave, duration             : 42 ms (1.00 video frame)\nInterleave, preload duration     : 512 ms\n\n\n\n[color=yellow]SOURCES:[/color]\n\nVIDEO:The Experiment DVDSCR VOBS .............. Transformerz,Thanks\nAUDIO:The Experiment DVDSCR VOBS .............. Transformerz,Thanks\n\n[color=yellow]NOTES:[/color]\n\nIMAGiNE bringing you another release.....The Experiment \n\nOk source for this was good,needed a few issues sorted out,but overall a nice dvdscreener.\nFor this we did a script which contained.....crop,resize,white balance,rgb eq,sharpness and also fixed\nthe bad ivtc.\nAudio was just kept how it was on the dvdr..\n\nEnjoy folks :)\n\n\n[color=yellow]SCREENS:[/color]\n\n[IMG]http://imagine.takagari.com/EXPERIMENT%20DVDSCR/vlcsnap-114380.png[/img]\n[IMG]http://imagine.takagari.com/EXPERIMENT%20DVDSCR/vlcsnap-114564.png[/img]\n[IMG]http://imagine.takagari.com/EXPERIMENT%20DVDSCR/vlcsnap-114817.png[/img]\n[IMG]http://imagine.takagari.com/EXPERIMENT%20DVDSCR/vlcsnap-114987.png[/img]\n\n\n[color=yellow]GREETS:[/color]\n\nFLAWL3SS,ViSiON,FUSiON,Rx,SecretMyth,BirdFlu,ELEKTRI4KA and Autotron\nAnd to all the other p2p grps past and present \n\nSpecial thanks to Python-Lair for the server :)\nAnd special thanks to supreme-speeds.com for the ripbox :)\nAlso to The Scene Nation for all their help :)\n\n[COLOR=RED]Looking for these,syncers,cammers,silver supplier.....Have anything to offer????......\nContact us &lt;a class=&quot;__cf_email__&quot; href=&quot;/cdn-cgi/l/email-protection&quot; data-cfemail=&quot;2c45414d4b4542494b5e43595c6c44595f44414d4540024f4341&quot;&gt;[email&amp;#160;protected]&lt;/a&gt;&lt;script data-cfhash='f9e31' type=&quot;text/javascript&quot;&gt;\n/* &lt;![CDATA[ */!function(){try{var t=&quot;currentScript&quot;in document?document.currentScript:function(){for(var t=document.getElementsByTagName(&quot;script&quot;),e=t.length;e--;)if(t[e].getAttribute(&quot;data-cfhash&quot;))return t[e]}();if(t&amp;&amp;t.previousSibling){var e,r,n,i,c=t.previousSibling,a=c.getAttribute(&quot;data-cfemail&quot;);if(a){for(e=&quot;&quot;,r=parseInt(a.substr(0,2),16),n=2;a.length-n;n+=2)i=parseInt(a.substr(n,2),16)^r,e+=String.fromCharCode(i);e=document.createTextNode(e),c.parentNode.replaceChild(e,c)}t.parentNode.removeChild(t);}}catch(u){}}()/* ]]&gt; */&lt;/script&gt;[/COLOR]","torrent":{"xt":"urn:btih:dc7d82fee898ba057704ddd16a0b17eaf361ff7d","amp;dn":"The+Experiment+DVDSCR+AC3+XViD+-+IMAGiNE","amp;tr":["udp%3A%2F%2Ftracker.openbittorrent.com%3A80","udp%3A%2F%2Fopen.demonii.com%3A1337","udp%3A%2F%2Ftracker.coppersurfer.tk%3A6969","udp%3A%2F%2Fexodus.desync.com%3A6969"],"infoHash":"dc7d82fee898ba057704ddd16a0b17eaf361ff7d","infoHashBuffer":{"type":"Buffer","data":[220,125,130,254,232,152,186,5,119,4,221,209,106,11,23,234,243,97,255,125]},"announce":[],"urlList":[]}}